<svg xmlns="http://www.w3.org/2000/svg" viewBox="0 0 32 32" width="32" height="32">
  <defs>
    <style>
      .money-icon { fill: #ff6b35; }
      .background { fill: #000000; }
    </style>
  </defs>
  
  <!-- Background circle -->
  <circle cx="16" cy="16" r="16" class="background"/>
  
  <!-- Top hand giving money -->
  <path class="money-icon" d="M8 12c0-1.1 0.9-2 2-2h2c0.6 0 1-0.4 1-1s-0.4-1-1-1h-2c-2.2 0-4 1.8-4 4v2c0 0.6 0.4 1 1 1s1-0.4 1-1v-2z"/>
  
  <!-- Money bill with dollar sign -->
  <rect x="10" y="10" width="8" height="4" rx="0.5" class="money-icon" fill="none" stroke="#ff6b35" stroke-width="0.5"/>
  <text x="14" y="12.5" text-anchor="middle" class="money-icon" font-family="Arial, sans-serif" font-size="2" font-weight="bold">$</text>
  
  <!-- Bottom hand receiving money -->
  <path class="money-icon" d="M22 20c0 1.1-0.9 2-2 2h-2c-0.6 0-1 0.4-1 1s0.4 1 1 1h2c2.2 0 4-1.8 4-4v-2c0-0.6-0.4-1-1-1s-1 0.4-1 1v2z"/>
  
  <!-- Hand details -->
  <path class="money-icon" d="M12 8c-0.6 0-1 0.4-1 1v2c0 0.6 0.4 1 1 1s1-0.4 1-1V9c0-0.6-0.4-1-1-1z"/>
  <path class="money-icon" d="M20 22c0.6 0 1-0.4 1-1v-2c0-0.6-0.4-1-1-1s-1 0.4-1 1v2c0 0.6 0.4 1 1 1z"/>
</svg>
